<?xml version="1.0" encoding="UTF-8" standalone="no"?>
<!DOCTYPE svg PUBLIC "-//W3C//DTD SVG 1.1//EN"
 "http://www.w3.org/Graphics/SVG/1.1/DTD/svg11.dtd">
<!-- Generated by graphviz version 2.40.1 (20161225.0304)
 -->
<!-- Title: %3 Pages: 1 -->
<svg width="3505pt" height="836pt"
 viewBox="0.00 0.00 3505.39 836.00" xmlns="http://www.w3.org/2000/svg" xmlns:xlink="http://www.w3.org/1999/xlink">
<g id="graph0" class="graph" transform="scale(1 1) rotate(0) translate(4 832)">
<title>%3</title>
<polygon fill="#ffffff" stroke="transparent" points="-4,4 -4,-832 3501.3916,-832 3501.3916,4 -4,4"/>
<!-- [root] aws_instance.miservidor (expand) -->
<g id="node1" class="node">
<title>[root] aws_instance.miservidor (expand)</title>
<polygon fill="none" stroke="#000000" points="2701.1171,-684 2507.1171,-684 2507.1171,-648 2701.1171,-648 2701.1171,-684"/>
<text text-anchor="middle" x="2604.1171" y="-662.3" font-family="Times,serif" font-size="14.00" fill="#000000">aws_instance.miservidor</text>
</g>
<!-- [root] aws_key_pair.miclave_en_aws (expand) -->
<g id="node2" class="node">
<title>[root] aws_key_pair.miclave_en_aws (expand)</title>
<polygon fill="none" stroke="#000000" points="2625.1171,-612 2393.1171,-612 2393.1171,-576 2625.1171,-576 2625.1171,-612"/>
<text text-anchor="middle" x="2509.1171" y="-590.3" font-family="Times,serif" font-size="14.00" fill="#000000">aws_key_pair.miclave_en_aws</text>
</g>
<!-- [root] aws_instance.miservidor (expand)&#45;&gt;[root] aws_key_pair.miclave_en_aws (expand) -->
<g id="edge1" class="edge">
<title>[root] aws_instance.miservidor (expand)&#45;&gt;[root] aws_key_pair.miclave_en_aws (expand)</title>
<path fill="none" stroke="#000000" d="M2580.1446,-647.8314C2568.331,-638.8779 2553.9199,-627.9558 2541.1736,-618.2955"/>
<polygon fill="#000000" stroke="#000000" points="2543.1657,-615.4137 2533.0819,-612.1628 2538.9375,-620.9925 2543.1657,-615.4137"/>
</g>
<!-- [root] data.aws_ami.miami (expand) -->
<g id="node3" class="node">
<title>[root] data.aws_ami.miami (expand)</title>
<polygon fill="none" stroke="#000000" points="2851.6171,-612 2688.6171,-612 2688.6171,-576 2851.6171,-576 2851.6171,-612"/>
<text text-anchor="middle" x="2770.1171" y="-590.3" font-family="Times,serif" font-size="14.00" fill="#000000">data.aws_ami.miami</text>
</g>
<!-- [root] aws_instance.miservidor (expand)&#45;&gt;[root] data.aws_ami.miami (expand) -->
<g id="edge2" class="edge">
<title>[root] aws_instance.miservidor (expand)&#45;&gt;[root] data.aws_ami.miami (expand)</title>
<path fill="none" stroke="#000000" d="M2646.0059,-647.8314C2668.2074,-638.2018 2695.6592,-626.295 2719.0954,-616.1299"/>
<polygon fill="#000000" stroke="#000000" points="2720.748,-619.2282 2728.5295,-612.038 2717.9625,-612.8062 2720.748,-619.2282"/>
</g>
<!-- [root] provider[&quot;registry.terraform.io/hashicorp/aws&quot;] -->
<g id="node5" class="node">
<title>[root] provider[&quot;registry.terraform.io/hashicorp/aws&quot;]</title>
<polygon fill="none" stroke="#000000" points="2859.1171,-540 2531.677,-522 2859.1171,-504 3186.5572,-522 2859.1171,-540"/>
<text text-anchor="middle" x="2859.1171" y="-518.3" font-family="Times,serif" font-size="14.00" fill="#000000">provider[&quot;registry.terraform.io/hashicorp/aws&quot;]</text>
</g>
<!-- [root] aws_key_pair.miclave_en_aws (expand)&#45;&gt;[root] provider[&quot;registry.terraform.io/hashicorp/aws&quot;] -->
<g id="edge4" class="edge">
<title>[root] aws_key_pair.miclave_en_aws (expand)&#45;&gt;[root] provider[&quot;registry.terraform.io/hashicorp/aws&quot;]</title>
<path fill="none" stroke="#000000" d="M2596.9851,-575.9243C2653.2206,-564.3558 2725.5725,-549.472 2780.0123,-538.273"/>
<polygon fill="#000000" stroke="#000000" points="2780.8713,-541.6696 2789.961,-536.2264 2779.4608,-534.8132 2780.8713,-541.6696"/>
</g>
<!-- [root] var.nombre -->
<g id="node7" class="node">
<title>[root] var.nombre</title>
<polygon fill="none" stroke="#000000" points="2508.1171,-540 2416.1171,-540 2416.1171,-504 2514.1171,-504 2514.1171,-534 2508.1171,-540"/>
<polyline fill="none" stroke="#000000" points="2508.1171,-540 2508.1171,-534 "/>
<polyline fill="none" stroke="#000000" points="2514.1171,-534 2508.1171,-534 "/>
<text text-anchor="middle" x="2465.1171" y="-518.3" font-family="Times,serif" font-size="14.00" fill="#000000">var.nombre</text>
</g>
<!-- [root] aws_key_pair.miclave_en_aws (expand)&#45;&gt;[root] var.nombre -->
<g id="edge5" class="edge">
<title>[root] aws_key_pair.miclave_en_aws (expand)&#45;&gt;[root] var.nombre</title>
<path fill="none" stroke="#000000" d="M2498.014,-575.8314C2493.0496,-567.7079 2487.0949,-557.9637 2481.6243,-549.0118"/>
<polygon fill="#000000" stroke="#000000" points="2484.5707,-547.121 2476.3696,-540.4133 2478.5977,-550.7712 2484.5707,-547.121"/>
</g>
<!-- [root] module.misclaves.output.keys (expand) -->
<g id="node8" class="node">
<title>[root] module.misclaves.output.keys (expand)</title>
<ellipse fill="none" stroke="#000000" cx="2174.1171" cy="-522" rx="223.6604" ry="18"/>
<text text-anchor="middle" x="2174.1171" y="-518.3" font-family="Times,serif" font-size="14.00" fill="#000000">[root] module.misclaves.output.keys (expand)</text>
</g>
<!-- [root] aws_key_pair.miclave_en_aws (expand)&#45;&gt;[root] module.misclaves.output.keys (expand) -->
<g id="edge3" class="edge">
<title>[root] aws_key_pair.miclave_en_aws (expand)&#45;&gt;[root] module.misclaves.output.keys (expand)</title>
<path fill="none" stroke="#000000" d="M2425.0148,-575.9243C2375.5011,-565.2825 2312.9339,-551.8353 2262.6668,-541.0316"/>
<polygon fill="#000000" stroke="#000000" points="2263.2971,-537.5872 2252.7849,-538.9077 2261.8262,-544.4309 2263.2971,-537.5872"/>
</g>
<!-- [root] data.aws_ami.miami (expand)&#45;&gt;[root] provider[&quot;registry.terraform.io/hashicorp/aws&quot;] -->
<g id="edge6" class="edge">
<title>[root] data.aws_ami.miami (expand)&#45;&gt;[root] provider[&quot;registry.terraform.io/hashicorp/aws&quot;]</title>
<path fill="none" stroke="#000000" d="M2792.5755,-575.8314C2803.956,-566.6247 2817.9095,-555.3365 2830.0944,-545.479"/>
<polygon fill="#000000" stroke="#000000" points="2832.6211,-547.9369 2838.1943,-538.9263 2828.2185,-542.4947 2832.6211,-547.9369"/>
</g>
<!-- [root] module.misclaves.tls_private_key.claves (expand) -->
<g id="node4" class="node">
<title>[root] module.misclaves.tls_private_key.claves (expand)</title>
<polygon fill="none" stroke="#000000" points="2847.1171,-468 2541.1171,-468 2541.1171,-432 2847.1171,-432 2847.1171,-468"/>
<text text-anchor="middle" x="2694.1171" y="-446.3" font-family="Times,serif" font-size="14.00" fill="#000000">module.misclaves.tls_private_key.claves</text>
</g>
<!-- [root] provider[&quot;registry.terraform.io/hashicorp/tls&quot;] -->
<g id="node6" class="node">
<title>[root] provider[&quot;registry.terraform.io/hashicorp/tls&quot;]</title>
<polygon fill="none" stroke="#000000" points="1476.1171,-396 1158.0602,-378 1476.1171,-360 1794.1739,-378 1476.1171,-396"/>
<text text-anchor="middle" x="1476.1171" y="-374.3" font-family="Times,serif" font-size="14.00" fill="#000000">provider[&quot;registry.terraform.io/hashicorp/tls&quot;]</text>
</g>
<!-- [root] module.misclaves.tls_private_key.claves (expand)&#45;&gt;[root] provider[&quot;registry.terraform.io/hashicorp/tls&quot;] -->
<g id="edge25" class="edge">
<title>[root] module.misclaves.tls_private_key.claves (expand)&#45;&gt;[root] provider[&quot;registry.terraform.io/hashicorp/tls&quot;]</title>
<path fill="none" stroke="#000000" d="M2541.0898,-440.9541C2311.3419,-427.3729 1879.0113,-401.8164 1641.9737,-387.8043"/>
<polygon fill="#000000" stroke="#000000" points="1642.0708,-384.3041 1631.8817,-387.2078 1641.6577,-391.2919 1642.0708,-384.3041"/>
</g>
<!-- [root] module.misclaves.local.existen_los_ficheros_claves (expand) -->
<g id="node20" class="node">
<title>[root] module.misclaves.local.existen_los_ficheros_claves (expand)</title>
<ellipse fill="none" stroke="#000000" cx="2134.1171" cy="-378" rx="321.9431" ry="18"/>
<text text-anchor="middle" x="2134.1171" y="-374.3" font-family="Times,serif" font-size="14.00" fill="#000000">[root] module.misclaves.local.existen_los_ficheros_claves (expand)</text>
</g>
<!-- [root] module.misclaves.tls_private_key.claves (expand)&#45;&gt;[root] module.misclaves.local.existen_los_ficheros_claves (expand) -->
<g id="edge22" class="edge">
<title>[root] module.misclaves.tls_private_key.claves (expand)&#45;&gt;[root] module.misclaves.local.existen_los_ficheros_claves (expand)</title>
<path fill="none" stroke="#000000" d="M2553.8893,-431.9707C2468.0332,-420.9321 2358.5963,-406.8616 2272.99,-395.8551"/>
<polygon fill="#000000" stroke="#000000" points="2273.3013,-392.3664 2262.9366,-394.5625 2272.4086,-399.3092 2273.3013,-392.3664"/>
</g>
<!-- [root] module.misclaves.var.algorithm (expand) -->
<g id="node21" class="node">
<title>[root] module.misclaves.var.algorithm (expand)</title>
<ellipse fill="none" stroke="#000000" cx="2741.1171" cy="-162" rx="231.259" ry="18"/>
<text text-anchor="middle" x="2741.1171" y="-158.3" font-family="Times,serif" font-size="14.00" fill="#000000">[root] module.misclaves.var.algorithm (expand)</text>
</g>
<!-- [root] module.misclaves.tls_private_key.claves (expand)&#45;&gt;[root] module.misclaves.var.algorithm (expand) -->
<g id="edge23" class="edge">
<title>[root] module.misclaves.tls_private_key.claves (expand)&#45;&gt;[root] module.misclaves.var.algorithm (expand)</title>
<path fill="none" stroke="#000000" d="M2785.5036,-431.946C2844.9787,-414.9468 2918.1359,-382.9179 2955.1171,-324 2996.869,-257.4812 2890.8877,-208.3317 2813.6009,-182.513"/>
<polygon fill="#000000" stroke="#000000" points="2814.448,-179.1078 2803.8555,-179.3287 2812.2739,-185.7616 2814.448,-179.1078"/>
</g>
<!-- [root] module.misclaves.var.force_generate (expand) -->
<g id="node22" class="node">
<title>[root] module.misclaves.var.force_generate (expand)</title>
<ellipse fill="none" stroke="#000000" cx="3012.1171" cy="-90" rx="256.1546" ry="18"/>
<text text-anchor="middle" x="3012.1171" y="-86.3" font-family="Times,serif" font-size="14.00" fill="#000000">[root] module.misclaves.var.force_generate (expand)</text>
</g>
<!-- [root] module.misclaves.tls_private_key.claves (expand)&#45;&gt;[root] module.misclaves.var.force_generate (expand) -->
<g id="edge24" class="edge">
<title>[root] module.misclaves.tls_private_key.claves (expand)&#45;&gt;[root] module.misclaves.var.force_generate (expand)</title>
<path fill="none" stroke="#000000" d="M2814.3004,-431.9382C2847.8781,-423.8953 2883.523,-412.3887 2914.1171,-396 2966.2451,-368.076 3012.1171,-365.1362 3012.1171,-306 3012.1171,-306 3012.1171,-306 3012.1171,-234 3012.1171,-193.876 3012.1171,-147.4631 3012.1171,-118.4177"/>
<polygon fill="#000000" stroke="#000000" points="3015.6172,-118.1853 3012.1171,-108.1854 3008.6172,-118.1854 3015.6172,-118.1853"/>
</g>
<!-- [root] module.misclaves.output.keys (expand)&#45;&gt;[root] module.misclaves.tls_private_key.claves (expand) -->
<g id="edge21" class="edge">
<title>[root] module.misclaves.output.keys (expand)&#45;&gt;[root] module.misclaves.tls_private_key.claves (expand)</title>
<path fill="none" stroke="#000000" d="M2286.6291,-506.4214C2364.9718,-495.574 2470.0099,-481.0302 2553.8201,-469.4257"/>
<polygon fill="#000000" stroke="#000000" points="2554.5069,-472.8641 2563.9324,-468.0256 2553.5468,-465.9303 2554.5069,-472.8641"/>
</g>
<!-- [root] module.misclaves (close) -->
<g id="node9" class="node">
<title>[root] module.misclaves (close)</title>
<ellipse fill="none" stroke="#000000" cx="2237.1171" cy="-666" rx="155.9723" ry="18"/>
<text text-anchor="middle" x="2237.1171" y="-662.3" font-family="Times,serif" font-size="14.00" fill="#000000">[root] module.misclaves (close)</text>
</g>
<!-- [root] module.misclaves (close)&#45;&gt;[root] module.misclaves.output.keys (expand) -->
<g id="edge7" class="edge">
<title>[root] module.misclaves (close)&#45;&gt;[root] module.misclaves.output.keys (expand)</title>
<path fill="none" stroke="#000000" d="M2229.1381,-647.7623C2218.2979,-622.9846 2198.8233,-578.4714 2186.1894,-549.5939"/>
<polygon fill="#000000" stroke="#000000" points="2189.2461,-547.8483 2182.0313,-540.0896 2182.833,-550.6541 2189.2461,-547.8483"/>
</g>
<!-- [root] module.misclaves.local.directorio_claves (expand) -->
<g id="node10" class="node">
<title>[root] module.misclaves.local.directorio_claves (expand)</title>
<ellipse fill="none" stroke="#000000" cx="1854.1171" cy="-162" rx="273.7515" ry="18"/>
<text text-anchor="middle" x="1854.1171" y="-158.3" font-family="Times,serif" font-size="14.00" fill="#000000">[root] module.misclaves.local.directorio_claves (expand)</text>
</g>
<!-- [root] module.misclaves.var.keys_path (expand) -->
<g id="node11" class="node">
<title>[root] module.misclaves.var.keys_path (expand)</title>
<ellipse fill="none" stroke="#000000" cx="2161.1171" cy="-90" rx="233.1587" ry="18"/>
<text text-anchor="middle" x="2161.1171" y="-86.3" font-family="Times,serif" font-size="14.00" fill="#000000">[root] module.misclaves.var.keys_path (expand)</text>
</g>
<!-- [root] module.misclaves.local.directorio_claves (expand)&#45;&gt;[root] module.misclaves.var.keys_path (expand) -->
<g id="edge8" class="edge">
<title>[root] module.misclaves.local.directorio_claves (expand)&#45;&gt;[root] module.misclaves.var.keys_path (expand)</title>
<path fill="none" stroke="#000000" d="M1928.0419,-144.6626C1973.3449,-134.0378 2031.4299,-120.4152 2078.2806,-109.4274"/>
<polygon fill="#000000" stroke="#000000" points="2079.1623,-112.8157 2088.0989,-107.1248 2077.5639,-106.0006 2079.1623,-112.8157"/>
</g>
<!-- [root] module.misclaves (expand) -->
<g id="node23" class="node">
<title>[root] module.misclaves (expand)</title>
<ellipse fill="none" stroke="#000000" cx="2728.1171" cy="-18" rx="165.9709" ry="18"/>
<text text-anchor="middle" x="2728.1171" y="-14.3" font-family="Times,serif" font-size="14.00" fill="#000000">[root] module.misclaves (expand)</text>
</g>
<!-- [root] module.misclaves.var.keys_path (expand)&#45;&gt;[root] module.misclaves (expand) -->
<g id="edge28" class="edge">
<title>[root] module.misclaves.var.keys_path (expand)&#45;&gt;[root] module.misclaves (expand)</title>
<path fill="none" stroke="#000000" d="M2282.4049,-74.5984C2379.1781,-62.3097 2513.9563,-45.195 2609.9106,-33.0103"/>
<polygon fill="#000000" stroke="#000000" points="2610.4692,-36.4676 2619.9486,-31.7357 2609.5873,-29.5234 2610.4692,-36.4676"/>
</g>
<!-- [root] module.misclaves.local.existe_fichero_clave_privada_openssh (expand) -->
<g id="node12" class="node">
<title>[root] module.misclaves.local.existe_fichero_clave_privada_openssh (expand)</title>
<ellipse fill="none" stroke="#000000" cx="371.1171" cy="-306" rx="371.2342" ry="18"/>
<text text-anchor="middle" x="371.1171" y="-302.3" font-family="Times,serif" font-size="14.00" fill="#000000">[root] module.misclaves.local.existe_fichero_clave_privada_openssh (expand)</text>
</g>
<!-- [root] module.misclaves.local.fichero_clave_privada_openssh (expand) -->
<g id="node13" class="node">
<title>[root] module.misclaves.local.fichero_clave_privada_openssh (expand)</title>
<ellipse fill="none" stroke="#000000" cx="404.1171" cy="-234" rx="338.74" ry="18"/>
<text text-anchor="middle" x="404.1171" y="-230.3" font-family="Times,serif" font-size="14.00" fill="#000000">[root] module.misclaves.local.fichero_clave_privada_openssh (expand)</text>
</g>
<!-- [root] module.misclaves.local.existe_fichero_clave_privada_openssh (expand)&#45;&gt;[root] module.misclaves.local.fichero_clave_privada_openssh (expand) -->
<g id="edge9" class="edge">
<title>[root] module.misclaves.local.existe_fichero_clave_privada_openssh (expand)&#45;&gt;[root] module.misclaves.local.fichero_clave_privada_openssh (expand)</title>
<path fill="none" stroke="#000000" d="M379.4444,-287.8314C383.0901,-279.8771 387.4479,-270.369 391.4798,-261.5723"/>
<polygon fill="#000000" stroke="#000000" points="394.6928,-262.9622 395.6777,-252.4133 388.3293,-260.0456 394.6928,-262.9622"/>
</g>
<!-- [root] module.misclaves.local.fichero_clave_privada_openssh (expand)&#45;&gt;[root] module.misclaves.local.directorio_claves (expand) -->
<g id="edge17" class="edge">
<title>[root] module.misclaves.local.fichero_clave_privada_openssh (expand)&#45;&gt;[root] module.misclaves.local.directorio_claves (expand)</title>
<path fill="none" stroke="#000000" d="M651.7334,-221.7046C924.7524,-208.1478 1360.3621,-186.5175 1625.5312,-173.3505"/>
<polygon fill="#000000" stroke="#000000" points="1625.861,-176.8385 1635.6751,-172.8468 1625.5138,-169.8471 1625.861,-176.8385"/>
</g>
<!-- [root] module.misclaves.local.existe_fichero_clave_privada_pem (expand) -->
<g id="node14" class="node">
<title>[root] module.misclaves.local.existe_fichero_clave_privada_pem (expand)</title>
<ellipse fill="none" stroke="#000000" cx="1113.1171" cy="-306" rx="352.8374" ry="18"/>
<text text-anchor="middle" x="1113.1171" y="-302.3" font-family="Times,serif" font-size="14.00" fill="#000000">[root] module.misclaves.local.existe_fichero_clave_privada_pem (expand)</text>
</g>
<!-- [root] module.misclaves.local.fichero_clave_privada_pem (expand) -->
<g id="node15" class="node">
<title>[root] module.misclaves.local.fichero_clave_privada_pem (expand)</title>
<ellipse fill="none" stroke="#000000" cx="1146.1171" cy="-234" rx="320.3432" ry="18"/>
<text text-anchor="middle" x="1146.1171" y="-230.3" font-family="Times,serif" font-size="14.00" fill="#000000">[root] module.misclaves.local.fichero_clave_privada_pem (expand)</text>
</g>
<!-- [root] module.misclaves.local.existe_fichero_clave_privada_pem (expand)&#45;&gt;[root] module.misclaves.local.fichero_clave_privada_pem (expand) -->
<g id="edge10" class="edge">
<title>[root] module.misclaves.local.existe_fichero_clave_privada_pem (expand)&#45;&gt;[root] module.misclaves.local.fichero_clave_privada_pem (expand)</title>
<path fill="none" stroke="#000000" d="M1121.4444,-287.8314C1125.0901,-279.8771 1129.4479,-270.369 1133.4798,-261.5723"/>
<polygon fill="#000000" stroke="#000000" points="1136.6928,-262.9622 1137.6777,-252.4133 1130.3293,-260.0456 1136.6928,-262.9622"/>
</g>
<!-- [root] module.misclaves.local.fichero_clave_privada_pem (expand)&#45;&gt;[root] module.misclaves.local.directorio_claves (expand) -->
<g id="edge18" class="edge">
<title>[root] module.misclaves.local.fichero_clave_privada_pem (expand)&#45;&gt;[root] module.misclaves.local.directorio_claves (expand)</title>
<path fill="none" stroke="#000000" d="M1301.053,-218.2438C1417.807,-206.3705 1577.3644,-190.1443 1695.1002,-178.1712"/>
<polygon fill="#000000" stroke="#000000" points="1695.6914,-181.6292 1705.286,-177.1354 1694.9832,-174.6651 1695.6914,-181.6292"/>
</g>
<!-- [root] module.misclaves.local.existe_fichero_clave_publica_openssh (expand) -->
<g id="node16" class="node">
<title>[root] module.misclaves.local.existe_fichero_clave_publica_openssh (expand)</title>
<ellipse fill="none" stroke="#000000" cx="1854.1171" cy="-306" rx="369.6345" ry="18"/>
<text text-anchor="middle" x="1854.1171" y="-302.3" font-family="Times,serif" font-size="14.00" fill="#000000">[root] module.misclaves.local.existe_fichero_clave_publica_openssh (expand)</text>
</g>
<!-- [root] module.misclaves.local.fichero_clave_publica_openssh (expand) -->
<g id="node17" class="node">
<title>[root] module.misclaves.local.fichero_clave_publica_openssh (expand)</title>
<ellipse fill="none" stroke="#000000" cx="1854.1171" cy="-234" rx="337.1402" ry="18"/>
<text text-anchor="middle" x="1854.1171" y="-230.3" font-family="Times,serif" font-size="14.00" fill="#000000">[root] module.misclaves.local.fichero_clave_publica_openssh (expand)</text>
</g>
<!-- [root] module.misclaves.local.existe_fichero_clave_publica_openssh (expand)&#45;&gt;[root] module.misclaves.local.fichero_clave_publica_openssh (expand) -->
<g id="edge11" class="edge">
<title>[root] module.misclaves.local.existe_fichero_clave_publica_openssh (expand)&#45;&gt;[root] module.misclaves.local.fichero_clave_publica_openssh (expand)</title>
<path fill="none" stroke="#000000" d="M1854.1171,-287.8314C1854.1171,-280.131 1854.1171,-270.9743 1854.1171,-262.4166"/>
<polygon fill="#000000" stroke="#000000" points="1857.6172,-262.4132 1854.1171,-252.4133 1850.6172,-262.4133 1857.6172,-262.4132"/>
</g>
<!-- [root] module.misclaves.local.fichero_clave_publica_openssh (expand)&#45;&gt;[root] module.misclaves.local.directorio_claves (expand) -->
<g id="edge19" class="edge">
<title>[root] module.misclaves.local.fichero_clave_publica_openssh (expand)&#45;&gt;[root] module.misclaves.local.directorio_claves (expand)</title>
<path fill="none" stroke="#000000" d="M1854.1171,-215.8314C1854.1171,-208.131 1854.1171,-198.9743 1854.1171,-190.4166"/>
<polygon fill="#000000" stroke="#000000" points="1857.6172,-190.4132 1854.1171,-180.4133 1850.6172,-190.4133 1857.6172,-190.4132"/>
</g>
<!-- [root] module.misclaves.local.existe_fichero_clave_publica_pem (expand) -->
<g id="node18" class="node">
<title>[root] module.misclaves.local.existe_fichero_clave_publica_pem (expand)</title>
<ellipse fill="none" stroke="#000000" cx="2594.1171" cy="-306" rx="352.0376" ry="18"/>
<text text-anchor="middle" x="2594.1171" y="-302.3" font-family="Times,serif" font-size="14.00" fill="#000000">[root] module.misclaves.local.existe_fichero_clave_publica_pem (expand)</text>
</g>
<!-- [root] module.misclaves.local.fichero_clave_publica_pem (expand) -->
<g id="node19" class="node">
<title>[root] module.misclaves.local.fichero_clave_publica_pem (expand)</title>
<ellipse fill="none" stroke="#000000" cx="2561.1171" cy="-234" rx="319.2434" ry="18"/>
<text text-anchor="middle" x="2561.1171" y="-230.3" font-family="Times,serif" font-size="14.00" fill="#000000">[root] module.misclaves.local.fichero_clave_publica_pem (expand)</text>
</g>
<!-- [root] module.misclaves.local.existe_fichero_clave_publica_pem (expand)&#45;&gt;[root] module.misclaves.local.fichero_clave_publica_pem (expand) -->
<g id="edge12" class="edge">
<title>[root] module.misclaves.local.existe_fichero_clave_publica_pem (expand)&#45;&gt;[root] module.misclaves.local.fichero_clave_publica_pem (expand)</title>
<path fill="none" stroke="#000000" d="M2585.7898,-287.8314C2582.1441,-279.8771 2577.7862,-270.369 2573.7544,-261.5723"/>
<polygon fill="#000000" stroke="#000000" points="2576.9048,-260.0456 2569.5565,-252.4133 2570.5414,-262.9622 2576.9048,-260.0456"/>
</g>
<!-- [root] module.misclaves.local.fichero_clave_publica_pem (expand)&#45;&gt;[root] module.misclaves.local.directorio_claves (expand) -->
<g id="edge20" class="edge">
<title>[root] module.misclaves.local.fichero_clave_publica_pem (expand)&#45;&gt;[root] module.misclaves.local.directorio_claves (expand)</title>
<path fill="none" stroke="#000000" d="M2406.3999,-218.2438C2289.8109,-206.3705 2130.4788,-190.1443 2012.9094,-178.1712"/>
<polygon fill="#000000" stroke="#000000" points="2013.0411,-174.6666 2002.7379,-177.1354 2012.3318,-181.6306 2013.0411,-174.6666"/>
</g>
<!-- [root] module.misclaves.local.existen_los_ficheros_claves (expand)&#45;&gt;[root] module.misclaves.local.existe_fichero_clave_privada_openssh (expand) -->
<g id="edge13" class="edge">
<title>[root] module.misclaves.local.existen_los_ficheros_claves (expand)&#45;&gt;[root] module.misclaves.local.existe_fichero_clave_privada_openssh (expand)</title>
<path fill="none" stroke="#000000" d="M1908.9122,-365.1434C1873.5135,-363.2986 1837.3259,-361.5153 1803.1171,-360 1335.7461,-339.2973 1218.5576,-343.0682 751.1171,-324 715.9052,-322.5636 678.8632,-320.944 642.2838,-319.28"/>
<polygon fill="#000000" stroke="#000000" points="642.13,-315.7694 631.9808,-318.8096 641.8107,-322.7621 642.13,-315.7694"/>
</g>
<!-- [root] module.misclaves.local.existen_los_ficheros_claves (expand)&#45;&gt;[root] module.misclaves.local.existe_fichero_clave_privada_pem (expand) -->
<g id="edge14" class="edge">
<title>[root] module.misclaves.local.existen_los_ficheros_claves (expand)&#45;&gt;[root] module.misclaves.local.existe_fichero_clave_privada_pem (expand)</title>
<path fill="none" stroke="#000000" d="M1933.9227,-363.8825C1760.1123,-351.6255 1508.9742,-333.9155 1330.3388,-321.3183"/>
<polygon fill="#000000" stroke="#000000" points="1330.5075,-317.8216 1320.286,-320.6094 1330.015,-324.8042 1330.5075,-317.8216"/>
</g>
<!-- [root] module.misclaves.local.existen_los_ficheros_claves (expand)&#45;&gt;[root] module.misclaves.local.existe_fichero_clave_publica_openssh (expand) -->
<g id="edge15" class="edge">
<title>[root] module.misclaves.local.existen_los_ficheros_claves (expand)&#45;&gt;[root] module.misclaves.local.existe_fichero_clave_publica_openssh (expand)</title>
<path fill="none" stroke="#000000" d="M2065.6214,-360.3868C2025.602,-350.0961 1974.9269,-337.0654 1933.2126,-326.3388"/>
<polygon fill="#000000" stroke="#000000" points="1933.9195,-322.9068 1923.3629,-323.8061 1932.1761,-329.6863 1933.9195,-322.9068"/>
</g>
<!-- [root] module.misclaves.local.existen_los_ficheros_claves (expand)&#45;&gt;[root] module.misclaves.local.existe_fichero_clave_publica_pem (expand) -->
<g id="edge16" class="edge">
<title>[root] module.misclaves.local.existen_los_ficheros_claves (expand)&#45;&gt;[root] module.misclaves.local.existe_fichero_clave_publica_pem (expand)</title>
<path fill="none" stroke="#000000" d="M2242.5482,-361.0282C2312.1848,-350.1285 2402.686,-335.9631 2474.426,-324.7343"/>
<polygon fill="#000000" stroke="#000000" points="2475.0818,-328.1743 2484.4202,-323.1699 2473.9992,-321.2585 2475.0818,-328.1743"/>
</g>
<!-- [root] module.misclaves.var.algorithm (expand)&#45;&gt;[root] module.misclaves (expand) -->
<g id="edge26" class="edge">
<title>[root] module.misclaves.var.algorithm (expand)&#45;&gt;[root] module.misclaves (expand)</title>
<path fill="none" stroke="#000000" d="M2739.4706,-143.7623C2737.2533,-119.201 2733.2852,-75.2474 2730.6768,-46.3541"/>
<polygon fill="#000000" stroke="#000000" points="2734.1352,-45.7344 2729.7502,-36.0896 2727.1635,-46.3638 2734.1352,-45.7344"/>
</g>
<!-- [root] module.misclaves.var.force_generate (expand)&#45;&gt;[root] module.misclaves (expand) -->
<g id="edge27" class="edge">
<title>[root] module.misclaves.var.force_generate (expand)&#45;&gt;[root] module.misclaves (expand)</title>
<path fill="none" stroke="#000000" d="M2943.3686,-72.5708C2901.182,-61.8756 2847.1172,-48.1691 2803.7257,-37.1684"/>
<polygon fill="#000000" stroke="#000000" points="2804.3443,-33.7145 2793.7908,-34.6497 2802.624,-40.4999 2804.3443,-33.7145"/>
</g>
<!-- [root] provider[&quot;registry.terraform.io/hashicorp/aws&quot;] (close) -->
<g id="node24" class="node">
<title>[root] provider[&quot;registry.terraform.io/hashicorp/aws&quot;] (close)</title>
<ellipse fill="none" stroke="#000000" cx="2604.1171" cy="-738" rx="293.548" ry="18"/>
<text text-anchor="middle" x="2604.1171" y="-734.3" font-family="Times,serif" font-size="14.00" fill="#000000">[root] provider[&quot;registry.terraform.io/hashicorp/aws&quot;] (close)</text>
</g>
<!-- [root] provider[&quot;registry.terraform.io/hashicorp/aws&quot;] (close)&#45;&gt;[root] aws_instance.miservidor (expand) -->
<g id="edge29" class="edge">
<title>[root] provider[&quot;registry.terraform.io/hashicorp/aws&quot;] (close)&#45;&gt;[root] aws_instance.miservidor (expand)</title>
<path fill="none" stroke="#000000" d="M2604.1171,-719.8314C2604.1171,-712.131 2604.1171,-702.9743 2604.1171,-694.4166"/>
<polygon fill="#000000" stroke="#000000" points="2607.6172,-694.4132 2604.1171,-684.4133 2600.6172,-694.4133 2607.6172,-694.4132"/>
</g>
<!-- [root] provider[&quot;registry.terraform.io/hashicorp/tls&quot;] (close) -->
<g id="node25" class="node">
<title>[root] provider[&quot;registry.terraform.io/hashicorp/tls&quot;] (close)</title>
<ellipse fill="none" stroke="#000000" cx="3210.1171" cy="-738" rx="287.0492" ry="18"/>
<text text-anchor="middle" x="3210.1171" y="-734.3" font-family="Times,serif" font-size="14.00" fill="#000000">[root] provider[&quot;registry.terraform.io/hashicorp/tls&quot;] (close)</text>
</g>
<!-- [root] provider[&quot;registry.terraform.io/hashicorp/tls&quot;] (close)&#45;&gt;[root] module.misclaves.tls_private_key.claves (expand) -->
<g id="edge30" class="edge">
<title>[root] provider[&quot;registry.terraform.io/hashicorp/tls&quot;] (close)&#45;&gt;[root] module.misclaves.tls_private_key.claves (expand)</title>
<path fill="none" stroke="#000000" d="M3215.8036,-719.7387C3228.2142,-675.8531 3252.2706,-563.6868 3195.1171,-504 3171.7829,-479.6316 2994.6469,-465.0232 2857.5429,-457.2608"/>
<polygon fill="#000000" stroke="#000000" points="2857.5075,-453.7535 2847.328,-456.6909 2857.1175,-460.7426 2857.5075,-453.7535"/>
</g>
<!-- [root] root -->
<g id="node26" class="node">
<title>[root] root</title>
<ellipse fill="none" stroke="#000000" cx="2604.1171" cy="-810" rx="58.4896" ry="18"/>
<text text-anchor="middle" x="2604.1171" y="-806.3" font-family="Times,serif" font-size="14.00" fill="#000000">[root] root</text>
</g>
<!-- [root] root&#45;&gt;[root] module.misclaves (close) -->
<g id="edge31" class="edge">
<title>[root] root&#45;&gt;[root] module.misclaves (close)</title>
<path fill="none" stroke="#000000" d="M2547.7406,-805.0698C2471.7211,-797.5652 2341.2379,-781.4065 2301.1171,-756 2277.4848,-741.0349 2260.0023,-713.8962 2249.3354,-693.3199"/>
<polygon fill="#000000" stroke="#000000" points="2252.3525,-691.5251 2244.783,-684.112 2246.0776,-694.6275 2252.3525,-691.5251"/>
</g>
<!-- [root] root&#45;&gt;[root] provider[&quot;registry.terraform.io/hashicorp/aws&quot;] (close) -->
<g id="edge32" class="edge">
<title>[root] root&#45;&gt;[root] provider[&quot;registry.terraform.io/hashicorp/aws&quot;] (close)</title>
<path fill="none" stroke="#000000" d="M2604.1171,-791.8314C2604.1171,-784.131 2604.1171,-774.9743 2604.1171,-766.4166"/>
<polygon fill="#000000" stroke="#000000" points="2607.6172,-766.4132 2604.1171,-756.4133 2600.6172,-766.4133 2607.6172,-766.4132"/>
</g>
<!-- [root] root&#45;&gt;[root] provider[&quot;registry.terraform.io/hashicorp/tls&quot;] (close) -->
<g id="edge33" class="edge">
<title>[root] root&#45;&gt;[root] provider[&quot;registry.terraform.io/hashicorp/tls&quot;] (close)</title>
<path fill="none" stroke="#000000" d="M2658.6963,-803.5153C2749.6441,-792.7097 2935.0935,-770.6761 3065.7434,-755.1533"/>
<polygon fill="#000000" stroke="#000000" points="3066.3231,-758.6091 3075.8403,-753.9537 3065.4972,-751.658 3066.3231,-758.6091"/>
</g>
</g>
</svg>
